The.King.Of.Fighters.STV.480p.BRrip.XviD.Feel-Free

Genre:Action | Sci-Fi
Language:English
IMDb:http://www.imdb.com/title/tt1038685/
Source:BluRay.x264-MELiTE
Subtitles: ROMANA

General
Complete name :The.King.Of.Fighters.STV.480p.BRrip.XviD.Feel-Free
Format : AVI
Format/Info : Audio Video Interleave
File size : 1.28 GiB
Duration : 1h 32mn
Overall bit rate : 1 975 Kbps
Writing library : VirtualDub build 32817/release
Video #0
Codec ID : XVID
Codec ID/Hint : XviD
Duration : 1h 32mn
Bit rate : 1 517 Kbps
Width : 652 pixels
Height : 352 pixels
Display aspect ratio : 1.852
Frame rate : 23.976 fps
Resolution : 24 bits
Colorimetry : 4:2:0
Scan type : Progressive
Bits/(Pixel*Frame) : 0.276
Stream size : 1 009 MiB (77%)
Writing library : XviD 1.2.1 (UTC 2008-12-04)
Audio #1
ID : 1
Format : AC-3
Format/Info : Audio Coding 3
Codec ID : 2000
Duration : 1h 32mn
Bit rate mode : Constant
Bit rate : 448 Kbps
Channel(s) : 6 channels
Channel positions : Front: L C R, Surround: L R, LFE
Sampling rate : 48.0 KHz
Stream size : 298 MiB (23%)
Alignment : Split accross interleaves
Interleave, duration : 42 ms (1.00 video frame)
Interleave, preload duration : 500 ms

Plot
Live-action feature based on the video game "King of Fighters"
